# xmcd
#
# Track frame offsets:
#  150
#  15715
#  40585
#  56380
#  73265
#  88930
#  100981
#  111611
#  130555
#  144505
#  163310
#  179372
#
# Disc length: 2617 seconds
#
# Revision: 0
# Processed by: cddbd v1.5.1PL2 Copyright (c) Steve Scherf et al.
# Submitted via: Collectorz.com_Music_Collector 6.11
#
DISCID=aa0a370c
DTITLE=Terry Daily - I've Paid My Dues
DYEAR=2006
DGENRE=Blues Country
TTITLE0=I've Paid My Dues
TTITLE1=Down Home Girl
TTITLE2=I Had To Walk That Road Alone
TTITLE3=Robert Johnson
TTITLE4=Can't Stop Hurting Myself
TTITLE5=You Did That For Me
TTITLE6=Having A Rising
TTITLE7=Until I Fall Away
TTITLE8=Oh, Those Blue Eyes
TTITLE9=I Stand Amazed
TTITLE10=Trouble In My Way
TTITLE11=A Sinner's Prayer
EXTD=
EXTT0=
EXTT1=
EXTT2=
EXTT3=
EXTT4=
EXTT5=
EXTT6=
EXTT7=
EXTT8=
EXTT9=
EXTT10=
EXTT11=
PLAYORDER=
